<?xml version="1.0" encoding="iso-8859-1"?>
<!-- Generator: Adobe Illustrator 18.0.0, SVG Export Plug-In . SVG Version: 6.00 Build 0)  -->
<!DOCTYPE svg PUBLIC "-//W3C//DTD SVG 1.1//EN" "http://www.w3.org/Graphics/SVG/1.1/DTD/svg11.dtd">
<svg version="1.1" id="Layer_1" xmlns="http://www.w3.org/2000/svg" xmlns:xlink="http://www.w3.org/1999/xlink" x="0px" y="0px"
	 viewBox="0 0 182 55.333" style="enable-background:new 0 0 182 55.333;" xml:space="preserve">
<g>
	<g>
		<path style="fill:#99999A;" d="M54.311,27.407c0,14.561-11.903,26.405-26.531,26.405S1.252,41.966,1.252,27.407
			C1.252,12.846,13.152,1,27.78,1S54.311,12.846,54.311,27.407L54.311,27.407z"/>
	</g>
	<g>
		<g>
			<polygon style="fill:#FFFFFF;" points="74.314,30 67.794,16.114 64.408,16.114 64.408,38.433 67.794,38.433 67.794,23.511 
				73.06,34.392 75.568,34.392 80.708,23.511 80.708,38.433 84.093,38.433 84.093,16.114 80.708,16.114 			"/>
			<path style="fill:#FFFFFF;" d="M96.811,32.226c0,2.447-1.507,3.542-3.292,3.542c-1.786,0-3.198-1.067-3.198-3.542V22.54h-3.198
				v10.156c0,1.789,0.376,3.293,1.599,4.485c0.941,0.906,2.289,1.441,3.918,1.441c1.601,0,3.136-0.595,4.232-1.787v1.599h3.136
				V22.54h-3.198V32.226z"/>
			<path style="fill:#FFFFFF;" d="M106.273,33.857V16.114h-3.198v17.93c0,2.354,1.315,4.39,4.357,4.39h1.973v-2.726h-1.41
				C106.71,35.707,106.273,35.078,106.273,33.857z"/>
			<path style="fill:#FFFFFF;" d="M117.095,22.354c-4.075,0-6.739,2.979-6.739,8.118c0,6.049,3.165,8.15,7.147,8.15
				c2.789,0,4.325-0.848,5.954-2.475l-2.037-1.915c-1.128,1.131-2.067,1.629-3.856,1.629c-2.602,0-4.044-1.722-4.044-4.451h10.313
				V30C123.834,25.486,121.359,22.354,117.095,22.354z M113.522,29.184c0.032-0.969,0.094-1.441,0.408-2.161
				c0.502-1.192,1.663-2.006,3.165-2.006c1.507,0,2.634,0.814,3.136,2.006c0.315,0.72,0.409,1.192,0.438,2.161H113.522z"/>
			<path style="fill:#FFFFFF;" d="M139.617,27.492c-0.94-0.844-2.1-1.348-4.17-1.662l-2.54-0.374
				c-1.033-0.156-1.941-0.532-2.508-1.034c-0.593-0.534-0.845-1.255-0.845-2.068c0-1.975,1.441-3.481,4.075-3.481
				c1.879,0,3.48,0.407,4.857,1.722l2.164-2.131c-1.911-1.785-3.979-2.538-6.927-2.538c-4.64,0-7.461,2.663-7.461,6.551
				c0,1.818,0.534,3.228,1.632,4.264c0.969,0.907,2.41,1.536,4.229,1.785l2.633,0.379c1.319,0.186,1.882,0.407,2.447,0.941
				c0.596,0.53,0.877,1.348,0.877,2.319c0,2.161-1.694,3.414-4.607,3.414c-2.29,0-4.075-0.502-5.705-2.131l-2.258,2.226
				c2.131,2.164,4.546,2.947,7.899,2.947c4.671,0,8.025-2.445,8.025-6.551C141.434,30.155,140.838,28.559,139.617,27.492z"/>
			<path style="fill:#FFFFFF;" d="M149.868,22.354c-2.162,0-3.698,0.814-4.734,1.88c-1.504,1.564-1.879,3.574-1.879,6.238
				c0,2.696,0.375,4.704,1.879,6.268c1.036,1.067,2.572,1.882,4.734,1.882c2.164,0,3.732-0.816,4.765-1.882
				c1.504-1.564,1.879-3.572,1.879-6.268c0-2.663-0.375-4.673-1.879-6.238C153.6,23.167,152.032,22.354,149.868,22.354z
				 M152.22,34.829c-0.596,0.595-1.413,0.939-2.352,0.939c-0.94,0-1.724-0.344-2.317-0.939c-0.975-0.971-1.098-2.635-1.098-4.357
				c0-1.724,0.123-3.386,1.098-4.357c0.593-0.595,1.377-0.911,2.317-0.911c0.939,0,1.756,0.316,2.352,0.911
				c0.971,0.972,1.098,2.633,1.098,4.357C153.318,32.194,153.191,33.857,152.22,34.829z"/>
			<path style="fill:#FFFFFF;" d="M159.746,20.378v2.443h-1.821v2.447h1.821v13.165h3.198V25.268h3.165v-2.447h-3.165v-2.287
				c0-1.16,0.56-1.85,1.752-1.85h1.413v-2.728H164.1C161.123,15.956,159.746,18.091,159.746,20.378z"/>
			<path style="fill:#FFFFFF;" d="M173.098,17.996h-3.195v4.825h-1.821v2.447h1.821v8.743c0,2.291,1.377,4.422,4.354,4.422h1.912
				v-2.726h-1.315c-1.189,0-1.756-0.69-1.756-1.85v-8.589h3.071v-2.447h-3.071V17.996z"/>
			<path style="fill:#FFFFFF;" d="M180.132,20.459c-0.092-0.208-0.215-0.388-0.371-0.54c-0.156-0.152-0.338-0.272-0.545-0.359
				c-0.208-0.087-0.429-0.131-0.664-0.131c-0.235,0-0.457,0.044-0.666,0.131c-0.21,0.087-0.393,0.207-0.55,0.359
				c-0.157,0.153-0.282,0.333-0.373,0.54c-0.092,0.208-0.138,0.432-0.138,0.673c0,0.247,0.046,0.476,0.138,0.685
				c0.091,0.209,0.216,0.391,0.373,0.545c0.157,0.154,0.34,0.274,0.55,0.36c0.209,0.085,0.431,0.128,0.666,0.128
				c0.235,0,0.457-0.043,0.664-0.128c0.208-0.086,0.389-0.205,0.545-0.36c0.155-0.154,0.279-0.336,0.371-0.545
				c0.092-0.209,0.137-0.438,0.137-0.685C180.269,20.892,180.223,20.667,180.132,20.459z M179.85,21.716
				c-0.072,0.179-0.171,0.334-0.298,0.465c-0.127,0.131-0.275,0.234-0.446,0.309c-0.171,0.075-0.356,0.112-0.554,0.112
				c-0.201,0-0.388-0.037-0.561-0.112c-0.173-0.075-0.322-0.178-0.449-0.309c-0.127-0.132-0.226-0.286-0.298-0.465
				c-0.072-0.179-0.108-0.373-0.108-0.584c0-0.205,0.036-0.395,0.108-0.572c0.072-0.177,0.171-0.331,0.298-0.46
				c0.127-0.13,0.276-0.232,0.449-0.307c0.172-0.075,0.36-0.112,0.561-0.112c0.199,0,0.383,0.038,0.554,0.112
				c0.171,0.075,0.32,0.177,0.446,0.307s0.226,0.283,0.298,0.46c0.072,0.177,0.108,0.368,0.108,0.572
				C179.957,21.343,179.922,21.538,179.85,21.716z"/>
			<path style="fill:#FFFFFF;" d="M179.206,21.107c0.101-0.084,0.151-0.216,0.151-0.396c0-0.192-0.057-0.336-0.172-0.43
				c-0.114-0.095-0.291-0.142-0.529-0.142h-0.774v2.001h0.312v-0.861h0.33l0.545,0.861h0.334l-0.573-0.884
				C178.98,21.241,179.105,21.191,179.206,21.107z M178.519,21.027h-0.325v-0.637h0.412c0.052,0,0.104,0.004,0.158,0.012
				c0.053,0.007,0.101,0.022,0.142,0.043c0.041,0.022,0.075,0.052,0.101,0.092c0.026,0.04,0.039,0.093,0.039,0.16
				c0,0.079-0.015,0.141-0.044,0.186c-0.029,0.044-0.068,0.077-0.117,0.098c-0.049,0.022-0.105,0.034-0.167,0.039
				C178.656,21.025,178.59,21.027,178.519,21.027z"/>
		</g>
		<g>
			<g>
				<linearGradient id="SVGID_1_" gradientUnits="userSpaceOnUse" x1="27.7818" y1="168.1193" x2="27.7818" y2="-1.3389">
					<stop  offset="0.0337" style="stop-color:#211F1F"/>
					<stop  offset="1" style="stop-color:#FFFFFF"/>
				</linearGradient>
				<circle style="fill:url(#SVGID_1_);" cx="27.782" cy="27.252" r="24.613"/>
				<radialGradient id="SVGID_2_" cx="27.7818" cy="27.7432" r="19.0692" gradientUnits="userSpaceOnUse">
					<stop  offset="0.022" style="stop-color:#00A1DF"/>
					<stop  offset="0.9868" style="stop-color:#006892"/>
				</radialGradient>
				<path style="fill:url(#SVGID_2_);" d="M20.938,39.137c-4.063-1.919-6.898-6.222-6.898-11.229c0-2.637,0.789-5.08,2.127-7.082
					l8.875,13.225h5.363l8.874-13.225c1.338,2.002,2.126,4.445,2.126,7.082c0,4.667-2.462,8.726-6.087,10.809l1.706,6.545
					c6.505-3.355,10.955-10.136,10.955-17.96c0-7.387-3.97-13.847-9.89-17.368L27.782,25.836L17.578,9.874
					c-5.978,3.508-9.994,9.998-9.994,17.427c0,8.107,4.777,15.095,11.667,18.311L20.938,39.137z"/>
				<linearGradient id="SVGID_3_" gradientUnits="userSpaceOnUse" x1="27.7818" y1="352.3352" x2="27.7818" y2="-15.3687">
					<stop  offset="0.0337" style="stop-color:#211F1F"/>
					<stop  offset="1" style="stop-color:#FFFFFF"/>
				</linearGradient>
				<path style="opacity:0.65;fill:url(#SVGID_3_);" d="M18.316,49.878c2.841,1.146,5.94,2.009,9.191,2.009
					c3.81,0,7.457-0.605,10.677-2.151l-2.807-11.101c3.625-2.085,6.087-6.143,6.087-10.809c0-2.639-0.788-5.082-2.126-7.084
					l-8.874,13.225h-5.363l-8.875-13.225c-1.338,2.002-2.126,4.445-2.126,7.084c0,5.005,2.834,9.31,6.899,11.227L18.316,49.878z"/>
			</g>
		</g>
	</g>
</g>
</svg>
